HIERARCHY
ROOT mixamorig:Hips
{
	OFFSET 0.000000 201.639420 0.000000
	CHANNELS 6 Xposition Yposition Zposition Xrotation Yrotation Zrotation
	JOINT mixamorig:Spine
	{
		OFFSET 0.006200 19.524994 -2.481800
		CHANNELS 3 Xrotation Yrotation Zrotation
		JOINT mixamorig:Spine1
		{
			OFFSET -0.000900 22.835007 -2.825400
			CHANNELS 3 Xrotation Yrotation Zrotation
			JOINT mixamorig:Spine2
			{
				OFFSET -0.020600 26.552490 -3.193300
				CHANNELS 3 Xrotation Yrotation Zrotation
				JOINT mixamorig:Neck
				{
					OFFSET -0.060000 30.701813 1.352200
					CHANNELS 3 Xrotation Yrotation Zrotation
					JOINT mixamorig:Head
					{
						OFFSET -0.087200 22.547607 3.670900
						CHANNELS 3 Xrotation Yrotation Zrotation
						JOINT mixamorig:HeadTop_End
						{
							OFFSET -0.830600 40.355194 7.893500
							CHANNELS 3 Xrotation Yrotation Zrotation
							End Site
							{
								OFFSET 0.000000 30.592346 0.000000
							}
						}
						JOINT mixamorig:RightEye
						{
							OFFSET -6.302100 18.118591 16.197100
							CHANNELS 3 Xrotation Yrotation Zrotation
							End Site
							{
								OFFSET 0.000000 30.592346 0.000000
							}
						}
						JOINT mixamorig:LeftEye
						{
							OFFSET 6.741500 18.382690 16.401899
							CHANNELS 3 Xrotation Yrotation Zrotation
							End Site
							{
								OFFSET 0.000000 30.592346 0.000000
							}
						}
					}
				}
				JOINT mixamorig:LeftShoulder
				{
					OFFSET 11.924900 18.230499 1.425400
					CHANNELS 3 Xrotation Yrotation Zrotation
					JOINT mixamorig:LeftArm
					{
						OFFSET 25.435989 -0.697632 -5.229300
						CHANNELS 3 Xrotation Yrotation Zrotation
						JOINT mixamorig:LeftForeArm
						{
							OFFSET 54.684776 0.000000 0.000000
							CHANNELS 3 Xrotation Yrotation Zrotation
							JOINT mixamorig:LeftHand
							{
								OFFSET 55.098175 0.000000 0.000000
								CHANNELS 3 Xrotation Yrotation Zrotation
								JOINT mixamorig:LeftHandMiddle1
								{
									OFFSET 23.369751 0.000000 0.000000
									CHANNELS 3 Xrotation Yrotation Zrotation
									JOINT mixamorig:LeftHandMiddle2
									{
										OFFSET 6.378677 0.000000 0.000000
										CHANNELS 3 Xrotation Yrotation Zrotation
										JOINT mixamorig:LeftHandMiddle3
										{
											OFFSET 6.148331 0.000000 0.000000
											CHANNELS 3 Xrotation Yrotation Zrotation
											JOINT mixamorig:LeftHandMiddle4
											{
												OFFSET 6.582504 0.000000 0.000000
												CHANNELS 3 Xrotation Yrotation Zrotation
												End Site
												{
													OFFSET -1.168900 6.395691 1.028606
												}
											}
										}
									}
								}
								JOINT mixamorig:LeftHandThumb1
								{
									OFFSET 7.235672 -3.848206 5.434273
									CHANNELS 3 Xrotation Yrotation Zrotation
									JOINT mixamorig:LeftHandThumb2
									{
										OFFSET 6.568451 -3.792297 3.792300
										CHANNELS 3 Xrotation Yrotation Zrotation
										JOINT mixamorig:LeftHandThumb3
										{
											OFFSET 6.063080 -3.500519 3.500518
											CHANNELS 3 Xrotation Yrotation Zrotation
											JOINT mixamorig:LeftHandThumb4
											{
												OFFSET 4.793182 -2.767334 2.767349
												CHANNELS 3 Xrotation Yrotation Zrotation
												End Site
												{
													OFFSET 0.101639 6.054260 1.275483
												}
											}
										}
									}
								}
								JOINT mixamorig:LeftHandIndex1
								{
									OFFSET 23.101074 -0.309540 4.992809
									CHANNELS 3 Xrotation Yrotation Zrotation
									JOINT mixamorig:LeftHandIndex2
									{
										OFFSET 6.226883 0.000000 0.000000
										CHANNELS 3 Xrotation Yrotation Zrotation
										JOINT mixamorig:LeftHandIndex3
										{
											OFFSET 6.094330 0.000000 0.000000
											CHANNELS 3 Xrotation Yrotation Zrotation
											JOINT mixamorig:LeftHandIndex4
											{
												OFFSET 5.482605 0.000000 0.000000
												CHANNELS 3 Xrotation Yrotation Zrotation
												End Site
												{
													OFFSET -1.427902 5.233032 0.797164
												}
											}
										}
									}
								}
								JOINT mixamorig:LeftHandRing1
								{
									OFFSET 22.299240 0.021149 -3.964172
									CHANNELS 3 Xrotation Yrotation Zrotation
									JOINT mixamorig:LeftHandRing2
									{
										OFFSET 6.321869 0.000000 0.000000
										CHANNELS 3 Xrotation Yrotation Zrotation
										JOINT mixamorig:LeftHandRing3
										{
											OFFSET 5.899796 0.000000 0.000000
											CHANNELS 3 Xrotation Yrotation Zrotation
											JOINT mixamorig:LeftHandRing4
											{
												OFFSET 6.517899 0.000000 0.000000
												CHANNELS 3 Xrotation Yrotation Zrotation
												End Site
												{
													OFFSET -1.637299 6.232208 0.980890
												}
											}
										}
									}
								}
								JOINT mixamorig:LeftHandPinky1
								{
									OFFSET 20.463791 -0.302338 -8.562233
									CHANNELS 3 Xrotation Yrotation Zrotation
									JOINT mixamorig:LeftHandPinky2
									{
										OFFSET 6.908646 0.000000 0.000000
										CHANNELS 3 Xrotation Yrotation Zrotation
										JOINT mixamorig:LeftHandPinky3
										{
											OFFSET 4.622849 0.000000 0.000000
											CHANNELS 3 Xrotation Yrotation Zrotation
											JOINT mixamorig:LeftHandPinky4
											{
												OFFSET 5.216080 0.000000 0.000000
												CHANNELS 3 Xrotation Yrotation Zrotation
												End Site
												{
													OFFSET -0.606308 5.116241 0.814926
												}
											}
										}
									}
								}
							}
						}
					}
				}
				JOINT mixamorig:RightShoulder
				{
					OFFSET -12.001300 18.284088 1.348900
					CHANNELS 3 Xrotation Yrotation Zrotation
					JOINT mixamorig:RightArm
					{
						OFFSET -25.308500 -0.751312 -5.164599
						CHANNELS 3 Xrotation Yrotation Zrotation
						JOINT mixamorig:RightForeArm
						{
							OFFSET -54.684429 0.000000 0.000000
							CHANNELS 3 Xrotation Yrotation Zrotation
							JOINT mixamorig:RightHand
							{
								OFFSET -55.150291 0.000000 0.000000
								CHANNELS 3 Xrotation Yrotation Zrotation
								JOINT mixamorig:RightHandMiddle1
								{
									OFFSET -23.317566 0.000000 0.000000
									CHANNELS 3 Xrotation Yrotation Zrotation
									JOINT mixamorig:RightHandMiddle2
									{
										OFFSET -6.378403 0.000000 0.000000
										CHANNELS 3 Xrotation Yrotation Zrotation
										JOINT mixamorig:RightHandMiddle3
										{
											OFFSET -6.148193 0.000000 0.000000
											CHANNELS 3 Xrotation Yrotation Zrotation
											JOINT mixamorig:RightHandMiddle4
											{
												OFFSET -6.583389 0.000000 0.000000
												CHANNELS 3 Xrotation Yrotation Zrotation
												End Site
												{
													OFFSET 1.171692 6.395905 1.029786
												}
											}
										}
									}
								}
								JOINT mixamorig:RightHandThumb1
								{
									OFFSET -7.190521 -3.860474 5.435846
									CHANNELS 3 Xrotation Yrotation Zrotation
									JOINT mixamorig:RightHandThumb2
									{
										OFFSET -6.567429 -3.791718 3.791708
										CHANNELS 3 Xrotation Yrotation Zrotation
										JOINT mixamorig:RightHandThumb3
										{
											OFFSET -6.062469 -3.500153 3.500166
											CHANNELS 3 Xrotation Yrotation Zrotation
											JOINT mixamorig:RightHandThumb4
											{
												OFFSET -4.792618 -2.767029 2.767022
												CHANNELS 3 Xrotation Yrotation Zrotation
												End Site
												{
													OFFSET -0.100327 6.053253 1.276754
												}
											}
										}
									}
								}
								JOINT mixamorig:RightHandIndex1
								{
									OFFSET -23.048981 -0.310791 4.992554
									CHANNELS 3 Xrotation Yrotation Zrotation
									JOINT mixamorig:RightHandIndex2
									{
										OFFSET -6.227539 0.000000 0.000000
										CHANNELS 3 Xrotation Yrotation Zrotation
										JOINT mixamorig:RightHandIndex3
										{
											OFFSET -6.095047 0.000000 0.000000
											CHANNELS 3 Xrotation Yrotation Zrotation
											JOINT mixamorig:RightHandIndex4
											{
												OFFSET -5.484772 0.000000 0.000000
												CHANNELS 3 Xrotation Yrotation Zrotation
												End Site
												{
													OFFSET 1.420593 5.237305 0.797056
												}
											}
										}
									}
								}
								JOINT mixamorig:RightHandRing1
								{
									OFFSET -22.246323 0.020569 -3.963762
									CHANNELS 3 Xrotation Yrotation Zrotation
									JOINT mixamorig:RightHandRing2
									{
										OFFSET -6.322128 0.000000 0.000000
										CHANNELS 3 Xrotation Yrotation Zrotation
										JOINT mixamorig:RightHandRing3
										{
											OFFSET -5.900024 0.000000 0.000000
											CHANNELS 3 Xrotation Yrotation Zrotation
											JOINT mixamorig:RightHandRing4
											{
												OFFSET -6.518356 0.000000 0.000000
												CHANNELS 3 Xrotation Yrotation Zrotation
												End Site
												{
													OFFSET 1.636398 6.232697 0.982186
												}
											}
										}
									}
								}
								JOINT mixamorig:RightHandPinky1
								{
									OFFSET -20.411011 -0.303314 -8.561701
									CHANNELS 3 Xrotation Yrotation Zrotation
									JOINT mixamorig:RightHandPinky2
									{
										OFFSET -6.907349 0.000000 0.000000
										CHANNELS 3 Xrotation Yrotation Zrotation
										JOINT mixamorig:RightHandPinky3
										{
											OFFSET -4.623840 0.000000 0.000000
											CHANNELS 3 Xrotation Yrotation Zrotation
											JOINT mixamorig:RightHandPinky4
											{
												OFFSET -5.218353 0.000000 0.000000
												CHANNELS 3 Xrotation Yrotation Zrotation
												End Site
												{
													OFFSET 0.602097 5.118835 0.816273
												}
											}
										}
									}
								}
							}
						}
					}
				}
			}
		}
	}
	JOINT mixamorig:LeftUpLeg
	{
		OFFSET 18.168400 -13.561905 -0.039000
		CHANNELS 3 Xrotation Yrotation Zrotation
		JOINT mixamorig:LeftLeg
		{
			OFFSET 0.577358 -80.825211 -3.695000
			CHANNELS 3 Xrotation Yrotation Zrotation
			JOINT mixamorig:LeftFoot
			{
				OFFSET -0.577356 -83.370262 -6.520700
				CHANNELS 3 Xrotation Yrotation Zrotation
				JOINT mixamorig:LeftToeBase
				{
					OFFSET 0.750401 -20.798306 25.135401
					CHANNELS 3 Xrotation Yrotation Zrotation
					JOINT mixamorig:LeftToe_End
					{
						OFFSET -0.000500 0.001200 19.917799
						CHANNELS 3 Xrotation Yrotation Zrotation
						End Site
						{
							OFFSET 0.000000 19.917805 0.000000
						}
					}
				}
			}
		}
	}
	JOINT mixamorig:RightUpLeg
	{
		OFFSET -18.162500 -13.585098 -0.041000
		CHANNELS 3 Xrotation Yrotation Zrotation
		JOINT mixamorig:RightLeg
		{
			OFFSET -0.595024 -80.945297 -3.631900
			CHANNELS 3 Xrotation Yrotation Zrotation
			JOINT mixamorig:RightFoot
			{
				OFFSET 0.595024 -83.218193 -6.561200
				CHANNELS 3 Xrotation Yrotation Zrotation
				JOINT mixamorig:RightToeBase
				{
					OFFSET -0.753601 -20.807106 25.115000
					CHANNELS 3 Xrotation Yrotation Zrotation
					JOINT mixamorig:RightToe_End
					{
						OFFSET 0.000299 0.001700 19.918200
						CHANNELS 3 Xrotation Yrotation Zrotation
						End Site
						{
							OFFSET 0.000000 19.918203 0.000000
						}
					}
				}
			}
		}
	}
}
MOTION
Frames: 4
Frame Time: 0.033333
-0.849471 178.583679 -322.938660 6.168393 -18.329723 -4.526319 7.250952 -5.202121 -2.927093 17.499209 -4.395570 0.611881 17.641153 -3.795490 1.678628 -7.966672 5.407207 11.008014 -11.327815 31.423764 -0.344877 -0.000001 -0.000000 0.000000 -0.000001 -0.000000 0.000000 -0.000001 -0.000000 0.000000 -37.628369 -5.043103 6.390182 -48.674230 -16.047775 -67.496899 0.000003 -36.909570 0.000004 -122.171594 9.723299 14.442206 0.003136 5.232824 -52.987320 3.349253 5.290901 -64.647413 0.269827 1.759145 -17.439824 -0.000001 0.000001 0.000001 4.803916 10.391504 5.042336 18.996006 -3.361299 8.412560 -4.598060 -9.947206 1.538482 0.000002 0.000001 -0.000002 -0.467274 3.603340 -36.889148 2.931240 5.072653 -60.021606 0.509605 2.391725 -24.052911 0.000001 0.000000 0.000000 -1.182835 5.068721 -60.487998 4.095807 5.582453 -72.514506 0.603895 2.592471 -26.221161 0.000003 -0.000001 -0.000000 -7.240474 4.434496 -72.905951 3.343811 5.288341 -64.588086 0.187401 1.471383 -14.516083 -0.000003 0.000000 0.000003 -41.275964 -6.124591 -8.592111 -45.091348 59.436873 101.153012 0.000275 87.887261 -0.000274 -48.593295 -7.477029 -29.153098 3.942887 -7.470123 54.022111 6.484238 -4.284536 113.121320 0.248722 -1.503072 18.790241 0.000001 -0.000001 -0.000001 8.739275 -5.263786 11.143968 22.432976 -19.575981 -17.999338 0.637345 -54.184570 -32.728979 0.000001 0.000001 0.000004 -0.799582 0.949461 12.900326 0.747268 -2.532155 32.879335 0.615337 -2.315522 29.760196 0.000001 0.000000 -0.000002 -3.234038 -2.654498 56.853047 5.526987 -4.575408 100.775890 1.757461 -3.645837 51.460571 -0.000001 -0.000001 -0.000001 -4.312718 -3.206952 64.954785 3.948875 -4.603113 81.242675 2.219736 -3.969581 58.413130 0.000000 0.000001 0.000002 -54.629236 -3.832201 10.006429 40.515716 -1.323306 4.402089 6.596208 -0.442619 -7.595284 -1.008139 -0.000010 0.000002 0.000000 -0.000001 -0.000000 8.611980 -0.274769 10.232480 29.682967 -6.648423 -7.761566 -9.978630 -12.298223 5.571527 -26.513169 -1.566519 8.987537 0.000000 0.000000 -0.000000 
-1.162910 178.801880 -329.110687 5.144507 -20.252150 -4.226703 6.968552 -5.060801 -2.760156 17.441141 -4.198085 0.564210 17.573600 -3.621193 1.581659 -7.908965 5.672990 10.883206 -10.864772 31.963383 -0.499633 -0.000002 -0.000000 0.000001 -0.000002 -0.000000 0.000001 -0.000002 -0.000000 0.000001 -37.654286 -4.464261 6.448519 -48.029805 -15.486568 -68.444595 -0.000028 -35.833959 -0.000026 -123.526635 9.897124 15.383036 0.003134 5.232840 -52.987354 3.349270 5.290911 -64.647406 0.269836 1.759157 -17.439812 0.000002 0.000001 -0.000001 4.803917 10.391524 5.042334 18.996009 -3.361272 8.412554 -4.598062 -9.947221 1.538484 0.000000 -0.000003 0.000003 -0.467270 3.603367 -36.889162 2.931247 5.072653 -60.021578 0.509594 2.391717 -24.052926 0.000000 0.000001 -0.000000 -1.182822 5.068741 -60.487978 4.095811 5.582455 -72.514513 0.603885 2.592452 -26.221163 0.000003 0.000001 -0.000001 -7.240474 4.434495 -72.905958 3.343803 5.288352 -64.588079 0.187395 1.471375 -14.516100 -0.000003 -0.000004 0.000001 -41.260848 -6.009600 -8.522923 -45.380801 59.461803 100.789789 -0.000115 88.865993 0.000609 -50.928202 -11.409472 -30.509390 3.942890 -7.470142 54.022131 6.484236 -4.284538 113.121327 0.248722 -1.503074 18.790243 0.000000 0.000001 -0.000002 8.739271 -5.263794 11.143966 22.432983 -19.575971 -17.999335 0.637371 -54.184553 -32.728959 0.000000 0.000001 0.000004 -0.799576 0.949455 12.900325 0.747268 -2.532158 32.879335 0.615335 -2.315522 29.760200 -0.000000 -0.000000 -0.000001 -3.234046 -2.654520 56.853071 5.526989 -4.575390 100.775869 1.757453 -3.645826 51.460568 0.000002 -0.000000 -0.000001 -4.312723 -3.206978 64.954798 3.948895 -4.603107 81.242716 2.219728 -3.969574 58.413103 -0.000002 0.000001 0.000001 -53.158696 -3.546098 11.175836 37.767538 -0.369251 4.374921 7.393943 -0.464203 -8.581622 -1.810175 -0.000005 -0.000001 -0.000000 0.000001 0.000000 15.235374 -0.232066 9.027923 17.171587 -7.777548 -7.956829 -18.798812 -11.228011 6.807554 -17.205965 -0.000005 0.000002 -0.000000 -0.000003 0.000000 
-1.620118 179.675125 -335.202637 3.607595 -22.151750 -4.199826 6.833146 -4.894842 -2.434592 17.407908 -3.916816 0.496265 17.529932 -3.373902 1.453672 -7.715164 5.935594 10.526215 -10.404804 32.347783 -0.499968 -0.000000 -0.000000 0.000000 -0.000000 -0.000000 0.000000 -0.000000 -0.000000 0.000000 -37.677178 -4.106354 6.414114 -47.603939 -14.899030 -69.221597 -0.000005 -35.605585 -0.000008 -124.277805 9.956445 16.297724 0.003129 5.232835 -52.987347 3.349274 5.290921 -64.647399 0.269827 1.759140 -17.439829 -0.000001 -0.000001 -0.000001 4.803924 10.391517 5.042336 18.996004 -3.361268 8.412542 -4.598059 -9.947225 1.538490 -0.000001 -0.000004 -0.000001 -0.467267 3.603364 -36.889179 2.931251 5.072650 -60.021578 0.509582 2.391723 -24.052935 -0.000003 -0.000000 -0.000001 -1.182827 5.068742 -60.487991 4.095811 5.582463 -72.514486 0.603886 2.592458 -26.221151 -0.000001 0.000001 -0.000003 -7.240468 4.434497 -72.905965 3.343804 5.288333 -64.588086 0.187387 1.471390 -14.516099 -0.000001 0.000002 0.000001 -41.244575 -5.887267 -8.447697 -45.232084 59.598639 99.975883 0.020475 89.932903 -0.014763 -52.731779 -14.092654 -32.001543 3.942894 -7.470139 54.022114 6.484241 -4.284535 113.121320 0.248724 -1.503069 18.790245 0.000000 -0.000001 -0.000001 8.739296 -5.263777 11.143937 22.432973 -19.575971 -17.999335 0.637374 -54.184553 -32.728952 0.000000 0.000000 0.000001 -0.799567 0.949469 12.900318 0.747268 -2.532156 32.879335 0.615335 -2.315521 29.760200 0.000003 -0.000000 -0.000001 -3.234032 -2.654499 56.853047 5.526995 -4.575396 100.775910 1.757471 -3.645835 51.460554 0.000000 -0.000001 0.000002 -4.312706 -3.206967 64.954785 3.948880 -4.603121 81.242682 2.219732 -3.969588 58.413116 0.000000 0.000001 0.000001 -50.703230 -2.802921 12.590969 34.697132 0.877388 4.347749 7.480364 -0.468451 -8.981600 -2.834512 0.000000 -0.000002 0.000000 -0.000001 -0.000000 17.961348 -0.476436 7.632911 11.145845 -8.418360 -7.227007 -22.611838 -10.344210 6.920112 -11.236022 0.000014 0.000001 0.000000 -0.000004 -0.000000 
-2.122279 180.757690 -341.282654 1.774646 -23.907125 -4.446871 6.897349 -4.694704 -2.024111 17.396297 -3.573000 0.433836 17.508971 -3.074008 1.324990 -7.219166 6.168495 10.042151 -10.035044 32.488703 -0.278537 -0.000001 -0.000000 0.000001 -0.000001 -0.000000 0.000001 -0.000001 -0.000000 0.000001 -37.670737 -4.096255 6.270180 -47.351065 -14.046692 -69.454083 0.000001 -36.822055 -0.000006 -123.929725 9.819523 17.480624 0.003144 5.232840 -52.987327 3.349262 5.290909 -64.647392 0.269838 1.759146 -17.439826 -0.000002 0.000001 -0.000001 4.803913 10.391517 5.042341 18.996004 -3.361266 8.412555 -4.598068 -9.947224 1.538482 -0.000002 -0.000002 0.000000 -0.467280 3.603349 -36.889162 2.931259 5.072676 -60.021571 0.509596 2.391706 -24.052928 0.000001 0.000001 -0.000001 -1.182833 5.068739 -60.487991 4.095812 5.582472 -72.514506 0.603880 2.592460 -26.221146 -0.000000 0.000003 0.000003 -7.240464 4.434497 -72.905958 3.343776 5.288333 -64.588079 0.187410 1.471388 -14.516075 -0.000001 -0.000001 -0.000001 -41.230153 -5.752625 -8.372701 -44.731711 59.734382 99.045994 0.004299 90.966618 -0.004343 -53.677442 -14.976004 -33.174857 3.942893 -7.470118 54.022124 6.484237 -4.284536 113.121327 0.248722 -1.503074 18.790243 0.000000 -0.000002 -0.000001 8.739287 -5.263782 11.143957 22.432964 -19.575974 -17.999314 0.637383 -54.184553 -32.728935 -0.000001 0.000000 0.000002 -0.799570 0.949477 12.900324 0.747270 -2.532154 32.879335 0.615337 -2.315521 29.760200 -0.000000 -0.000000 0.000000 -3.234042 -2.654510 56.853050 5.526985 -4.575403 100.775883 1.757465 -3.645840 51.460568 -0.000001 -0.000001 0.000001 -4.312722 -3.206960 64.954805 3.948874 -4.603118 81.242669 2.219732 -3.969572 58.413130 0.000003 0.000001 -0.000000 -47.927916 -1.810978 14.087514 31.758474 1.979139 4.392587 6.681898 -0.362045 -8.588448 -3.973567 0.000002 0.000004 -0.000000 0.000000 0.000000 16.780288 -0.617320 6.433092 12.919325 -8.524810 -6.121843 -25.654942 -9.518458 6.838157 -6.380437 0.000002 -0.000001 -0.000000 0.000002 0.000000 
